<?xml version="1.0" standalone="no"?>
<!DOCTYPE svg PUBLIC "-//W3C//DTD SVG 20010904//EN"
 "http://www.w3.org/TR/2001/REC-SVG-20010904/DTD/svg10.dtd">
<svg version="1.0" xmlns="http://www.w3.org/2000/svg"
 width="1024.000000pt" height="1024.000000pt" viewBox="0 0 1024.000000 1024.000000"
 preserveAspectRatio="xMidYMid meet">
<metadata>
Created by potrace 1.16, written by Peter Selinger 2001-2019
</metadata>
<g transform="translate(0.000000,1024.000000) scale(0.100000,-0.100000)"
fill="#000000" stroke="none">
<path d="M4735 9418 c-461 -40 -951 -177 -1425 -397 -531 -247 -1080 -663
-1426 -1081 -367 -443 -624 -904 -799 -1435 -96 -290 -153 -543 -192 -855 -14
-112 -18 -217 -18 -460 0 -336 10 -456 61 -750 116 -676 410 -1326 866 -1913
273 -352 560 -618 943 -874 605 -404 1267 -642 1997 -718 171 -17 590 -20 773
-5 329 28 530 67 868 169 833 252 1582 772 2097 1456 407 541 685 1156 820
1810 93 449 106 999 36 1460 -143 941 -631 1841 -1351 2493 -519 470 -1072
769 -1795 971 -187 52 -532 109 -785 131 -142 12 -528 11 -670 -2z m-195
-1648 c275 -20 459 -53 573 -104 76 -33 169 -98 206 -143 91 -111 155 -339
176 -627 l6 -89 -28 7 c-102 23 -175 28 -358 24 -179 -4 -206 -7 -260 -28 -70
-27 -135 -86 -135 -121 1 -13 7 -35 15 -49 20 -35 19 -41 -14 -76 -29 -31 -32
-32 -149 -39 -102 -6 -125 -5 -155 10 -51 24 -69 54 -57 96 6 19 10 48 10 65
0 28 -6 34 -46 53 -148 70 -384 121 -558 121 -82 0 -117 -5 -174 -24 -134 -46
-194 -90 -180 -132 2 -5 -19 -29 -45 -53 -26 -24 -55 -57 -65 -73 -16 -27 -18
-28 -104 -28 -48 0 -88 3 -88 8 0 4 13 75 30 158 16 83 45 276 65 430 58 454
55 446 138 493 107 61 263 102 452 120 130 12 587 13 745 1z m-488 -1168 c132
-24 230 -67 252 -111 21 -39 21 -181 1 -276 -35 -164 -143 -307 -261 -341 -49
-14 -82 -16 -206 -10 -202 10 -266 31 -347 116 -60 63 -111 250 -111 405 0
128 72 217 190 236 80 13 367 2 482 -19z m1414 -39 c23 -12 44 -30 48 -39 6
-16 -7 -221 -24 -377 -15 -132 -61 -202 -162 -247 -68 -30 -260 -30 -341 0
-124 46 -187 187 -203 450 l-7 115 28 33 c35 41 54 52 140 74 58 14 105 17
275 15 188 -2 208 -4 246 -24z m-2281 -133 c87 -14 91 -20 109 -196 18 -183
38 -243 108 -319 94 -103 164 -127 418 -143 164 -11 263 -2 325 28 42 21 149
121 186 176 47 69 74 136 99 244 l27 115 79 3 c43 1 85 -2 93 -7 7 -5 24 -60
37 -122 13 -63 39 -166 59 -230 43 -142 50 -276 18 -331 -38 -65 -67 -73 -260
-73 -149 0 -175 -2 -189 -17 -29 -29 -8 -78 46 -108 42 -22 56 -24 180 -25
154 0 224 17 294 70 87 66 104 129 69 261 -9 35 -14 66 -11 69 3 4 28 -1 55
-10 26 -9 109 -21 183 -26 153 -11 254 -1 307 33 19 11 36 19 37 17 6 -7 -52
-399 -75 -504 -111 -518 -322 -861 -624 -1013 -129 -64 -297 -92 -448 -73
-191 24 -385 88 -548 182 -190 108 -337 229 -429 350 -156 207 -248 407 -304
662 -6 27 -7 27 -36 12 -119 -62 -305 94 -400 336 -49 123 -78 391 -49 466 13
36 81 101 125 119 63 26 106 6 205 -97 120 -124 145 -120 174 26 30 150 24
144 140 125z m3226 -227 c141 -144 210 -228 310 -378 38 -57 73 -106 79 -110
5 -3 74 2 152 11 139 16 415 15 549 -2 l47 -6 65 98 c95 143 161 222 310 372
115 116 135 132 157 127 36 -9 39 -14 55 -91 37 -174 6 -647 -50 -773 l-27
-60 25 -78 c34 -103 46 -174 53 -313 10 -171 -19 -398 -54 -439 -14 -16 -40
-22 -147 -31 -200 -19 -331 -58 -298 -91 8 -8 57 -8 169 -2 88 5 173 7 189 3
28 -5 30 -9 35 -60 3 -30 9 -61 13 -67 11 -17 -4 -17 -166 3 -149 18 -230 15
-255 -9 -27 -28 -4 -37 134 -52 119 -14 228 -36 242 -49 37 -38 31 -1297 -9
-1580 -9 -64 -13 -73 -65 -130 -174 -190 -515 -465 -770 -619 l-92 -55 -6 61
c-12 115 -26 401 -26 535 0 120 -2 134 -21 153 -40 40 -100 -5 -118 -89 -18
-85 -34 -410 -29 -590 5 -172 5 -173 -18 -191 -44 -34 -416 -187 -501 -206
-32 -6 -33 -6 -33 26 0 68 -121 617 -175 794 -28 92 -53 135 -66 114 -23 -37
-7 -422 32 -792 12 -109 19 -200 16 -204 -18 -17 -492 -113 -562 -113 -17 0
-17 15 -12 278 7 372 37 616 112 927 76 318 145 489 389 970 190 372 238 481
277 623 18 67 27 86 48 97 26 13 194 45 237 45 35 0 48 24 24 45 -27 24 -134
30 -233 12 l-78 -13 3 65 3 66 35 -1 c19 -1 90 -5 158 -9 109 -7 122 -6 122 8
0 35 -48 52 -260 92 -80 15 -141 32 -152 42 -41 37 -53 114 -52 338 1 223 8
270 64 421 l23 61 -26 64 c-42 105 -52 200 -51 459 2 243 13 380 34 405 31 37
61 19 191 -112z m-3253 -1493 c94 -143 196 -245 396 -398 186 -141 432 -284
566 -329 79 -26 292 -25 370 1 77 26 145 61 215 111 63 44 137 85 155 85 6 0
10 -42 10 -115 l0 -114 47 -45 46 -45 -12 -58 c-25 -115 -114 -253 -209 -326
-195 -149 -571 -203 -887 -127 -181 43 -402 140 -540 238 -127 90 -281 256
-336 363 l-18 36 44 32 c25 18 49 41 55 51 20 38 40 287 40 504 0 121 2 217 4
215 3 -2 27 -38 54 -79z"/>
<path d="M3750 6475 c-70 -20 -164 -77 -168 -103 -5 -31 25 -34 67 -6 21 13
54 27 73 31 l36 5 4 -70 c4 -82 26 -115 89 -133 31 -10 43 -9 75 7 52 26 74
60 81 128 l6 58 36 -7 c19 -4 54 -18 77 -31 43 -26 61 -21 50 14 -8 22 -89 77
-146 98 -64 23 -212 28 -280 9z"/>
<path d="M4988 6456 c-83 -22 -129 -66 -95 -91 12 -8 17 -27 17 -60 0 -42 5
-52 39 -86 34 -34 45 -39 84 -39 63 0 112 47 123 117 3 26 10 56 15 65 10 19
25 16 118 -21 63 -25 84 -17 58 23 -37 55 -169 106 -272 105 -22 0 -61 -6 -87
-13z"/>
<path d="M2693 6160 c-22 -9 -43 -39 -43 -60 0 -7 14 -10 36 -8 l37 3 66 -135
c55 -112 70 -136 90 -138 23 -4 24 -3 19 55 -8 86 -53 188 -108 245 -47 49
-58 53 -97 38z"/>
<path d="M4382 5141 c-325 -6 -344 -7 -358 -25 -19 -26 -18 -40 5 -60 31 -28
114 -37 406 -43 377 -7 455 6 455 77 0 59 -11 60 -508 51z"/>
<path d="M6506 5225 c-47 -17 -60 -29 -53 -49 4 -11 19 -16 47 -16 22 0 40 -2
40 -3 0 -2 -8 -19 -17 -38 -21 -42 -21 -124 0 -166 9 -17 30 -42 47 -57 40
-33 118 -36 167 -6 29 17 84 82 97 113 7 17 64 -47 72 -80 14 -57 48 -71 65
-27 18 48 -14 128 -78 195 -71 74 -132 114 -208 134 -72 18 -127 19 -179 0z"/>
<path d="M7566 5224 c-57 -20 -181 -118 -213 -165 -37 -56 -45 -153 -15 -189
19 -23 22 -24 37 -9 9 9 20 41 24 72 7 53 24 87 42 87 5 0 9 -9 9 -19 0 -33
87 -119 133 -132 85 -23 150 9 192 95 22 45 25 64 23 130 -3 65 0 79 15 87 76
43 -143 81 -247 43z"/>
<path d="M7025 4684 c-58 -21 -85 -51 -85 -94 0 -43 44 -118 90 -152 31 -22
32 -25 28 -86 -5 -80 -27 -104 -101 -112 -50 -5 -52 -6 -55 -37 -7 -69 74 -95
158 -52 46 24 71 22 146 -11 76 -34 134 -12 134 50 0 35 -12 44 -65 47 -55 4
-82 34 -96 108 -10 54 -9 61 7 70 39 22 98 82 111 112 46 110 -15 174 -166
172 -36 0 -84 -7 -106 -15z"/>
</g>
</svg>
